<svg width="45" height="45" viewBox="0 0 45 45" fill="none" xmlns="http://www.w3.org/2000/svg">
<path d="M41.4474 29.629C38.6715 29.629 35.9527 29.1956 33.3734 28.3429C32.1158 27.9095 30.69 28.2434 29.8611 29.0866L24.7524 32.9448C18.8929 29.8185 15.1413 26.0692 12.053 20.2477L15.8069 15.2598C16.7519 14.3125 17.0906 12.9316 16.6856 11.6361C15.8305 9.04501 15.3948 6.32369 15.3948 3.55263C15.3948 1.59391 13.8009 0 11.8422 0H3.55263C1.59391 0 0 1.59391 0 3.55263C0 26.4055 18.5945 45 41.4474 45C43.4061 45 45 43.4061 45 41.4474V33.1816C45 31.2229 43.4061 29.629 41.4474 29.629ZM42.6316 41.4474C42.6316 42.1011 42.0987 42.6316 41.4474 42.6316C19.8994 42.6316 2.36839 25.1006 2.36839 3.55263C2.36839 2.89895 2.90128 2.36839 3.55263 2.36839H11.8422C12.4935 2.36839 13.0264 2.89895 13.0264 3.55263C13.0264 6.57715 13.5001 9.54715 14.4285 12.3632C14.5658 12.806 14.4546 13.2632 14.0211 13.7132L9.71057 19.421C9.43824 19.7834 9.39561 20.2689 9.60166 20.6716C13.114 27.5708 17.3796 31.8387 24.3286 35.3984C24.7288 35.6068 25.219 35.5642 25.5814 35.2895L31.4125 30.8701C31.7299 30.5574 32.1964 30.4485 32.6181 30.5882C35.4507 31.5237 38.4207 31.9974 41.4476 31.9974C42.0989 31.9974 42.6318 32.5279 42.6318 33.1816V41.4474H42.6316Z" fill="white"/>
</svg>
